<svg width="17" height="16" viewBox="0 0 17 16" fill="none" xmlns="http://www.w3.org/2000/svg">
<g clip-path="url(#clip0_2404_142)">
<path d="M6.97334 7.52664C6.8478 7.40111 6.67754 7.33058 6.50001 7.33058C6.32247 7.33058 6.15221 7.40111 6.02667 7.52664C5.90114 7.65218 5.83061 7.82244 5.83061 7.99997C5.83061 8.17751 5.90114 8.34777 6.02667 8.47331L8.02667 10.4733C8.08897 10.5351 8.16284 10.584 8.24407 10.6172C8.32529 10.6503 8.41227 10.6671 8.50001 10.6666C8.59127 10.6637 8.68097 10.6421 8.76354 10.6031C8.84611 10.5642 8.91979 10.5086 8.98001 10.44L13.6467 5.10664C13.7544 4.97286 13.8064 4.80265 13.7917 4.6315C13.777 4.46034 13.6969 4.30146 13.5679 4.18798C13.4389 4.0745 13.2712 4.01517 13.0995 4.02238C12.9279 4.02958 12.7657 4.10275 12.6467 4.22664L8.50001 9.02664L6.97334 7.52664Z" fill="#FFF500"/>
<path d="M14.5 7.33331C14.3232 7.33331 14.1536 7.40355 14.0286 7.52858C13.9036 7.6536 13.8333 7.82317 13.8333 7.99998C13.8333 9.41447 13.2714 10.771 12.2712 11.7712C11.271 12.7714 9.91449 13.3333 8.5 13.3333C7.44673 13.3328 6.41718 13.0205 5.54118 12.4357C4.66518 11.8509 3.98195 11.0198 3.57766 10.0472C3.17336 9.07457 3.0661 8.00404 3.26939 6.97057C3.47269 5.93711 3.97744 4.98697 4.72 4.23998C5.2138 3.73957 5.80245 3.34267 6.45151 3.07252C7.10056 2.80237 7.79698 2.66439 8.5 2.66665C8.9263 2.66932 9.35104 2.7185 9.76667 2.81331C9.85365 2.84022 9.94521 2.84902 10.0357 2.83918C10.1262 2.82934 10.2138 2.80106 10.2929 2.7561C10.3721 2.71113 10.4412 2.65043 10.496 2.57773C10.5508 2.50503 10.5902 2.42187 10.6116 2.33339C10.633 2.24491 10.6361 2.15297 10.6207 2.06325C10.6052 1.97352 10.5715 1.88792 10.5217 1.81171C10.4719 1.7355 10.407 1.67029 10.3311 1.62012C10.2551 1.56995 10.1696 1.53587 10.08 1.51998C9.5621 1.39814 9.03204 1.33552 8.5 1.33331C7.18289 1.34016 5.89733 1.73699 4.80553 2.47375C3.71374 3.2105 2.86465 4.25415 2.36542 5.473C1.86618 6.69185 1.73917 8.03126 2.00043 9.32222C2.26168 10.6132 2.89948 11.7978 3.83334 12.7266C5.07113 13.965 6.7491 14.6626 8.5 14.6666C10.2681 14.6666 11.9638 13.9643 13.214 12.714C14.4643 11.4638 15.1667 9.76809 15.1667 7.99998C15.1667 7.82317 15.0964 7.6536 14.9714 7.52858C14.8464 7.40355 14.6768 7.33331 14.5 7.33331Z" fill="#FFF500"/>
</g>
<defs>
<clipPath id="clip0_2404_142">
<rect width="16" height="16" fill="white" transform="translate(0.5)"/>
</clipPath>
</defs>
</svg>
