<svg width="17" height="16" viewBox="0 0 17 16" fill="none" xmlns="http://www.w3.org/2000/svg">
<g clip-path="url(#clip0_2404_109)">
<path d="M6.97332 7.52664C6.84779 7.40111 6.67753 7.33058 6.49999 7.33058C6.32246 7.33058 6.15219 7.40111 6.02666 7.52664C5.90112 7.65218 5.8306 7.82244 5.8306 7.99997C5.8306 8.17751 5.90112 8.34777 6.02666 8.47331L8.02666 10.4733C8.08895 10.5351 8.16283 10.584 8.24405 10.6172C8.32528 10.6503 8.41225 10.6671 8.49999 10.6666C8.59126 10.6637 8.68096 10.6421 8.76352 10.6031C8.84609 10.5642 8.91977 10.5086 8.97999 10.44L13.6467 5.10664C13.7544 4.97286 13.8064 4.80265 13.7917 4.6315C13.777 4.46034 13.6968 4.30146 13.5679 4.18798C13.4389 4.0745 13.2711 4.01517 13.0995 4.02238C12.9279 4.02958 12.7657 4.10275 12.6467 4.22664L8.49999 9.02664L6.97332 7.52664Z" fill="#064BB4"/>
<path d="M14.5 7.33331C14.3232 7.33331 14.1536 7.40355 14.0286 7.52858C13.9036 7.6536 13.8333 7.82317 13.8333 7.99998C13.8333 9.41447 13.2714 10.771 12.2712 11.7712C11.271 12.7714 9.91447 13.3333 8.49999 13.3333C7.44671 13.3328 6.41716 13.0205 5.54116 12.4357C4.66516 11.8509 3.98194 11.0198 3.57764 10.0472C3.17335 9.07457 3.06608 8.00404 3.26938 6.97057C3.47268 5.93711 3.97743 4.98697 4.71999 4.23998C5.21379 3.73957 5.80244 3.34267 6.45149 3.07252C7.10054 2.80237 7.79696 2.66439 8.49999 2.66665C8.92629 2.66932 9.35102 2.7185 9.76665 2.81331C9.85363 2.84022 9.9452 2.84902 10.0357 2.83918C10.1262 2.82934 10.2138 2.80106 10.2929 2.7561C10.3721 2.71113 10.4412 2.65043 10.496 2.57773C10.5508 2.50503 10.5901 2.42187 10.6116 2.33339C10.633 2.24491 10.6361 2.15297 10.6206 2.06325C10.6052 1.97352 10.5715 1.88792 10.5217 1.81171C10.4719 1.7355 10.407 1.67029 10.331 1.62012C10.2551 1.56995 10.1696 1.53587 10.08 1.51998C9.56209 1.39814 9.03202 1.33552 8.49999 1.33331C7.18288 1.34016 5.89731 1.73699 4.80552 2.47375C3.71372 3.2105 2.86463 4.25415 2.3654 5.473C1.86617 6.69185 1.73916 8.03126 2.00041 9.32222C2.26166 10.6132 2.89946 11.7978 3.83332 12.7266C5.07111 13.965 6.74909 14.6626 8.49999 14.6666C10.2681 14.6666 11.9638 13.9643 13.214 12.714C14.4643 11.4638 15.1667 9.76809 15.1667 7.99998C15.1667 7.82317 15.0964 7.6536 14.9714 7.52858C14.8464 7.40355 14.6768 7.33331 14.5 7.33331Z" fill="#064BB4"/>
</g>
<defs>
<clipPath id="clip0_2404_109">
<rect width="16" height="16" fill="white" transform="translate(0.5)"/>
</clipPath>
</defs>
</svg>
